Patient4_TMGait_0pt6_01_right_25_EMG.mot
version=1
nRows=23
nColumns=33
inDegrees=no
endheader
time	1LAddLong	2LGlutMax	3LGlutMed	4LIliopsoas	5LSemiMemb	6LBicFemLong	7LRecFem	8LVastMed	9LVastLat	10LGasMed	11LTibAnt	12lTibPost	13LPeroneusLong	14LSol	15LExtDigLong	16LFlexDigLong	17RAddLong	18RGlutMax	19RGlutMed	20RIliopsoas	21RSemiMemb	22RBicFemLong	23RRecFem	24RVastMed	25RVastLat	26RGasMed	27RTibAnt	28RTibPost	29RPeroneusLong	30RSol	31RExtDigLong	32RFlexDigLong
29.83	-0.006714	-0.13962	-0.086975	0.010071	-0.041962	0.003052	0.17868	0.001831	0.08194	-0.059967	-0.25299	0.018616	0.35202	-0.057678	-0.80521	-0.00061	0.13687	-0.033264	0.033264	-0.15884	-0.03952	-0.003967	-0.013275	-0.16129	-0.024719	-0.00946	0.34088	-0.006256	-0.10269	-0.043182	0.001068	-0.007324
29.831	-0.00885	-0.11581	-0.09079	0.020142	-0.042419	-0.014496	0.24857	0.002594	0.075226	-0.084839	-0.003967	0.015717	-0.4512	-0.097046	-0.3038	-0.010681	0.080719	-0.062866	0.12283	-0.086517	-0.02121	0.021973	-0.032501	-0.11932	-0.012665	-0.016479	0.15427	-0.011749	-0.21896	0.031891	-0.004578	-0.002289
29.832	-0.019531	-0.093536	0.023956	0.021667	0.011597	-0.062256	0.23239	0.009766	0.059052	-0.06073	0.17425	0.020599	-0.58319	0.093994	-0.011902	-0.01236	-0.012512	-0.042419	0.22736	0.015411	-0.001068	0.04715	-0.02243	-0.11032	-0.014191	-0.010986	-0.28061	-0.005341	-0.36301	0.025787	0.001984	-0.004883
29.833	-0.015106	-0.065613	0.020752	0.007324	0.035095	-0.057678	0.22934	0.007629	0.051575	-0.11047	-0.20203	0.019379	0.3685	0.23361	0.18356	-0.000916	-0.087738	-0.053101	0.13931	0.098419	-0.002289	0.052338	-0.029449	-0.019379	0.005035	-0.003815	-0.401	-0.005951	-0.31738	-0.020599	0.000916	0.002747
29.834	-0.01709	-0.06073	-0.029144	0.004425	0.022583	-0.03067	0.24216	0.00824	0.043488	-0.056458	-0.31311	0.013275	0.50247	-0.028992	-0.02182	-0.010681	-0.13901	-0.050354	0.085754	0.079956	-0.014648	0.047607	-0.081024	0.02594	0.016937	0.000153	-0.53024	-0.002289	-0.3064	-0.024261	-0.000458	-0.004272
29.835	0.000153	-0.081635	0.036621	-0.001221	-0.010071	0.034943	0.30609	0.004425	0.043488	0.091705	-0.033875	0.010834	0.1294	-0.30609	-0.43976	-0.019989	-0.19043	-0.074463	0.035095	0.074005	-0.016327	0.054321	-0.081787	0.046234	0.023956	-0.003204	-0.21194	-0.005188	-0.069733	-0.048981	-0.002136	-0.012817
29.836	-0.011444	-0.08316	0.15274	0.01236	-0.020142	0.054474	0.37399	0.002289	0.025482	0.10025	0.10193	0.004425	0.15182	-0.34164	-0.46234	-0.016632	-0.18341	-0.08606	0.12619	0.051575	-0.02121	0.017548	-0.065155	0.016937	0.004425	-0.00946	0.13138	-0.008698	0.18463	0.002441	0.000916	-0.004425
29.837	-0.023346	-0.053864	0.15305	-0.005341	-0.050507	0.043945	0.4126	-0.00885	0.024567	-0.039978	0.022125	0.009308	0.40695	-0.159	0.039673	0.002899	-0.12375	-0.052643	0.14069	0.11948	-0.023499	0.011597	-0.030365	0.005035	-0.008087	-0.012512	0.15701	-0.005646	0.007172	0.03479	0.000763	-0.012207
29.838	-0.003052	-0.062256	0.06424	-0.019226	-0.021667	-0.001068	0.45853	-0.006256	0.017242	-0.12543	-0.20859	0.014343	-0.22766	-0.13245	0.33585	0.015411	-0.085144	-0.040894	0.20508	0.11978	-0.031433	0.009613	-0.041046	-0.05127	-0.012207	-0.003967	0.29877	0.001373	0.24765	0.032043	0.000458	0.001068
29.839	-0.00412	-0.098419	0.19867	-0.003662	-0.000305	0.016632	0.38223	0.005188	-0.000916	-0.051575	-0.17593	0.018768	-0.75104	-0.12894	0.76691	0.002136	-0.073547	-0.094147	0.23575	0.037079	-0.02655	0.004425	-0.01358	-0.044556	0.008545	-0.008392	0.052338	-0.002747	0.49911	0.06134	0.00824	-0.003052
29.84	-0.006104	-0.087433	0.13458	-0.003204	0.027161	0.014343	0.22003	0.008392	0.011139	0.044708	-0.28564	0.018005	-0.60211	-0.14984	0.28549	0.00946	-0.084839	-0.046997	0.18692	-0.003052	-0.012665	0.001526	-0.014954	-0.061493	-0.006714	-0.014038	-0.2092	-0.005188	0.46417	0.037842	0.001221	-0.000763
29.841	-0.009613	-0.12802	0.080872	0.00351	0.045319	0.03006	0.14236	0.015869	0.044098	0.10025	-0.27466	0.013275	-0.19714	-0.3833	0.27191	0.006561	-0.046082	-0.087128	0.17731	-0.009918	0.014801	0.002136	-0.014343	-0.008392	0.002747	-0.016327	-0.17517	-0.003357	0.50964	0.054169	0.002136	0.003967
29.842	0.007782	-0.12741	0.055847	-0.003204	0.054626	0.006714	0.21042	0.019836	0.067139	0.096588	0.079193	0.001068	-0.25467	-0.39505	-0.32028	0.006104	-0.058899	-0.083618	0.12558	0.023651	0.014954	0.02182	-0.050659	-0.009766	0.009766	-0.016022	0.25177	-0.000153	0.3627	0.078888	0.001373	-0.002747
29.843	0.003815	-0.11444	0.0354	0.001373	0.069275	0.055389	0.17502	0.017853	0.032349	0.029297	0.31403	0.014343	0.16937	0.065155	-0.33081	0.001068	-0.037842	-0.061188	0.11658	0.016174	-0.034637	0.050201	-0.030212	-0.010376	0.016022	-0.00885	0.48111	-0.006866	0.17563	0.063782	0.009155	-0.003662
29.844	0.006409	-0.093994	0.017395	0.025482	0.057068	-0.058746	0.20386	0.011597	0.051727	-0.10346	0.052948	0.020294	1.0413	0.041656	0.28793	0.001678	0.074005	-0.032501	0.13489	-0.002899	-0.043488	0.052948	-0.052032	0.010529	0.007629	-0.003967	0.39734	0	0.015106	0.067444	0.007477	-0.001373
29.845	0.009308	-0.098419	0.060425	0.015106	0.025177	-0.10223	0.23727	0.015411	0.058136	-0.12573	-0.1506	0.020752	0.47684	-0.16541	0.96786	-0.022888	0.10101	-0.039368	0.052948	0.041962	-0.013123	0.014954	-0.034943	0.005493	-0.002747	-0.005646	0.25223	-0.005646	-0.18601	0.041656	0.000305	-0.009613
29.846	-0.000153	-0.11887	0.056458	0.012054	0.024719	-0.055695	0.26169	-0.001831	0.039368	-0.081024	0.001984	0.009308	-0.029449	-0.23468	0.024719	-0.016174	0.085144	-0.058441	0.030823	0.055542	0.000305	-0.005035	-0.035095	-0.075226	-0.018311	-0.015259	0.011292	-0.009766	-0.19211	0.024719	-0.00061	-0.004425
29.847	-0.00351	-0.14984	-0.058594	-0.008392	0.00824	-0.053253	0.31174	-0.012665	0.046082	-0.059357	0.23972	0.007782	-0.13428	-0.13275	0.02533	0.007935	0.094757	-0.046844	0.013733	-0.050507	0.007477	-0.055237	-0.016174	-0.085449	-0.019226	-0.015717	-0.17258	-0.002136	-0.029755	-0.018158	-0.004578	0.00351
29.848	-0.007935	-0.15335	0.037994	-0.00946	0.012207	-0.039978	0.32501	-0.001526	0.027161	0.024872	0.2269	0.011292	-0.3215	-0.14862	0.001984	-0.003662	0.058746	-0.061188	0.29816	-0.099487	0.005798	-0.081177	-0.022278	-0.097046	-0.009918	-0.011292	-0.095978	-0.002289	0.10483	-0.02243	-0.000153	0.001526
29.849	-0.008392	-0.12421	0.10147	0.000916	0.005646	-0.025024	0.34347	0.000305	0.022125	0.088959	0.21515	0.010834	-0.44235	-0.15701	-0.042267	-0.014954	0.039063	0.013885	0.48401	-0.092468	-0.030365	-0.082092	-0.006714	-0.13382	0.000458	-0.008698	-0.067291	-0.002594	0.046997	-0.041962	-0.001678	0.002747
29.85	-0.004578	-0.121	0.081787	0.020905	0.008698	-0.000916	0.3804	0.000153	0.14984	0.036926	-0.001678	0.010071	-0.39368	-0.14206	-0.41626	-0.023804	0.015106	0.043182	0.3009	0.041504	-0.066986	-0.033569	0.00946	-0.13992	0.004883	-0.005341	0.050964	-0.010071	0.08728	-0.057373	-0.001831	0.000153
29.851	-0.007019	-0.12497	0.09964	0.027161	-0.000305	0.016174	0.38177	0.004883	0.15488	-0.029755	-0.33524	0.00473	-0.080566	-0.15503	-0.22461	-0.005646	-0.011139	0.061646	0.067902	0.094147	-0.19852	-0.013123	-0.00824	-0.12573	-0.009766	-0.018616	0.14771	-0.003815	-0.044556	-0.028534	-0.006104	0.000763
29.852	0.001831	-0.11978	0.13107	0.031738	0.003357	-0.004272	0.39291	0.004272	0.14221	-0.01709	-0.2034	0.010529	0.095978	-0.048065	-0.31952	0.003204	0.021667	0.024414	-0.15579	0.099182	-0.3804	0.081329	0.00885	-0.16907	-0.021515	-0.047913	0.15839	-0.003357	-0.19073	-0.029449	-0.001984	0.005341
